<svg xmlns="http://www.w3.org/2000/svg" width="61" height="36" viewBox="0 0 61 36">
    <path fill="#9FA3A7" fill-rule="evenodd" d="M45.388 19.241c.332 0 .369.03.425.042.036.322-.203 1.831-1.378 1.831-.603 0-.756-.448-.756-.721 0-.522.289-1.152 1.709-1.152zm-31.504 0c.332 0 .363.03.419.042.036.322-.203 1.831-1.372 1.831-.603 0-.763-.448-.763-.721 0-.522.29-1.152 1.716-1.152zm16.659 12.071h-.007c-.01.013-.029.025-.042.037a18.334 18.334 0 0 0 12.25 4.656c10.085-.006 18.252-8.064 18.252-18.007v-.006c0-9.937-8.173-17.995-18.258-17.995a18.324 18.324 0 0 0-12.244 4.656A18.325 18.325 0 0 0 18.257.004h-.118C8.115.063-.001 8.102-.001 17.998c0 9.937 8.178 18.001 18.258 18.001a18.32 18.32 0 0 0 12.237-4.65l.049-.037zM7.451 22.588l1.109-6.882-2.497 6.882H4.722l-.172-6.882-1.187 6.882H1.486l1.558-9.13h2.833l.105 5.601 1.913-5.601h3.075l-1.532 9.13H7.451zm6.629-.012l.068-.734c-.03 0-.627.879-1.998.879-.712 0-1.876-.382-1.876-2.067 0-2.129 1.765-2.838 3.451-2.838.265 0 .83.049.83.049s.067-.134.067-.485c0-.583-.529-.661-1.254-.661-1.272 0-2.116.339-2.116.339l.283-1.654s1.022-.419 2.349-.419c.689 0 2.676.072 2.676 2.31l-.77 5.274h-1.71v.007zm7.233-2.328c0 2.546-2.497 2.437-2.939 2.437-1.629 0-2.135-.225-2.177-.237l.258-1.673c0-.018.818.291 1.728.291.523 0 1.198-.049 1.198-.667 0-.928-2.427-.703-2.427-2.898 0-1.934 1.456-2.504 2.895-2.504 1.106 0 1.79.152 1.79.152l-.24 1.69s-1.058-.083-1.328-.083c-.694 0-1.071.144-1.071.624 0 .958 2.313.485 2.313 2.868zm3.007.666c.173 0 .37-.06.505-.06l-.247 1.631c-.197.054-.749.248-1.456.254-.906.006-1.551-.497-1.551-1.625 0-.764 1.107-7.027 1.151-7.064h1.943l-.197 1.116h.964l-.245 1.806h-1.026l-.548 3.324c-.043.261.031.618.707.618zm4.274-5.959c2.134 0 2.773 1.54 2.773 2.801 0 .509-.258 1.752-.258 1.752h-3.948s-.364 1.533 1.723 1.533c.977 0 2.065-.472 2.065-.472l-.345 1.849s-.626.315-2.052.315c-1.545 0-3.359-.648-3.359-3.353 0-2.347 1.445-4.425 3.401-4.425zm4.717 7.645h-1.999l1.218-7.427h1.806l-.171 1.073s.64-1.17 1.513-1.17c.252 0 .375.023.375.023-.258.522-.485.995-.725 2.226-1.347-.473-1.452 2.104-2.017 5.275zm7.6-.115s-1.045.26-1.703.26c-2.318 0-3.493-1.576-3.493-3.965 0-3.607 2.183-5.529 4.422-5.529 1.014 0 2.189.473 2.189.473l-.314 2.031s-.799-.551-1.783-.551c-1.322 0-2.509 1.247-2.509 3.509 0 1.11.553 2.153 1.931 2.153.658 0 1.605-.473 1.605-.473l-.345 2.092zm4.68.091l.062-.734c-.031 0-.621.879-1.993.879-.719 0-1.875-.382-1.875-2.067 0-2.129 1.765-2.838 3.443-2.838.265 0 .837.049.837.049s.067-.134.067-.485c0-.583-.528-.661-1.254-.661-1.279 0-2.115.339-2.115.339l.276-1.654s1.027-.419 2.355-.419c.689 0 2.676.072 2.669 2.31l-.762 5.274c0 .007-1.71.007-1.71.007zm4.034.024h-1.992l1.211-7.427h1.814l-.178 1.073s.646-1.17 1.519-1.17c.252 0 .375.023.375.023-.258.522-.486.995-.726 2.226-1.346-.473-1.451 2.104-2.023 5.275zm6.968-6.567l.418-2.565 1.949-.004-1.488 9.112h-1.888l.086-.68s-.646.801-1.814.801c-1.611 0-2.404-1.54-2.404-3.11 0-2.432 1.482-4.555 3.265-4.555 1.144.007 1.876 1.001 1.876 1.001zm-27.096 1.953h-2.158c0-.128.203-1.316 1.261-1.316 1.101 0 .897 1.219.897 1.316zm25.552-1.103c.701 0 1.058.472 1.058 1.588 0 1.006-.504 2.365-1.556 2.365-.701 0-1.033-.583-1.033-1.492 0-1.486.676-2.461 1.531-2.461z"/>
</svg>
