<svg xmlns="http://www.w3.org/2000/svg" width="58" height="19" viewBox="0 0 58 19">
    <path fill="#9FA3A7" fill-rule="evenodd" d="M53.642 18.73s-.431-2.114-.572-2.758l-6.013-.008a566.38 566.38 0 0 0-.989 2.766h-4.931l6.974-16.868C48.605.664 49.446.336 50.57.336h3.628l3.801 18.394h-4.357zM51.219 6.884l-.317-1.587c-.238.691-.651 1.806-.623 1.757 0 0-1.483 4.084-1.871 5.145h3.898l-1.087-5.315zM41.1 4.548a8.176 8.176 0 0 0-3.515-.705c-1.838 0-2.689.818-2.689 1.583-.01.862.995 1.43 2.636 2.281 2.709 1.315 3.96 2.908 3.943 5.001-.037 3.821-3.241 6.289-8.177 6.289-2.106-.024-4.134-.468-5.231-.982l.659-4.121.605.293c1.542.687 2.541.966 4.42.966 1.35 0 2.798-.563 2.81-1.797.008-.806-.606-1.381-2.434-2.283-1.781-.881-4.141-2.356-4.115-5.001.028-3.577 3.297-6.074 7.937-6.074 1.82 0 3.278.4 4.208.773l-.636 3.989-.421-.212zM20.432 18.724L23.368.318h4.696l-2.938 18.406h-4.694zm-11.325-.016L4.932 2.722C3.489 1.867 1.842 1.179 0 .703L.06.32h7.572c1.02.041 1.844.388 2.128 1.554l1.647 8.458.489 2.55L16.494.332h4.974l-7.393 18.369-4.968.007z"/>
</svg>
